<svg height="297mm" width="210mm" xmlns="http://www.w3.org/2000/svg" xmlns:xlink="http://www.w3.org/1999/xlink"><linearGradient id="a"><stop offset="0"/><stop offset="1" stop-opacity="0"/></linearGradient><linearGradient id="b"><stop offset="0" stop-color="#fff"/><stop offset="1" stop-color="#fff" stop-opacity="0"/></linearGradient><linearGradient id="c" gradientTransform="matrix(2.774389 0 0 1.969706 -1892.179 -872.8854)" gradientUnits="userSpaceOnUse" x1="302.85715" x2="302.85715" y1="366.64789" y2="609.50507"><stop offset="0" stop-opacity="0"/><stop offset=".5"/><stop offset="1" stop-opacity="0"/></linearGradient><radialGradient id="d" cx="605.71429" cy="486.64789" gradientTransform="matrix(2.774389 0 0 1.969706 -1891.633 -872.8854)" gradientUnits="userSpaceOnUse" r="117.14286" xlink:href="#a"/><radialGradient id="e" cx="605.71429" cy="486.64789" gradientTransform="matrix(-2.774389 0 0 1.969706 112.7623 -872.8854)" gradientUnits="userSpaceOnUse" r="117.14286" xlink:href="#a"/><linearGradient id="f" gradientTransform="matrix(1.031913 0 0 .9606757 -10.760168 19.498309)" gradientUnits="userSpaceOnUse" x1="337.49271" x2="416.38455" xlink:href="#b" y1="402.10623" y2="645.40979"/><linearGradient id="g" gradientUnits="userSpaceOnUse" x1="356.35681" x2="425.96066" y1="164.76173" y2="646.65405"><stop offset="0" stop-color="#fff" stop-opacity="0"/><stop offset=".4375" stop-color="#fff"/><stop offset=".9375" stop-color="#fff" stop-opacity=".433333"/><stop offset="1" stop-color="#fff" stop-opacity="0"/></linearGradient><linearGradient id="h" gradientTransform="matrix(15.856476 0 0 -13.346709 -11.224579 915.66646)" gradientUnits="userSpaceOnUse" x1="32.133057" x2="37.948807" xlink:href="#b" y1="48.969127" y2="48.969127"/><linearGradient id="i" gradientTransform="matrix(13.707251 0 0 -15.439408 73.237263 853.39305)" gradientUnits="userSpaceOnUse" x1="35.996582" x2="33.664921" y1="40.458221" y2="37.770721"><stop offset="0" stop-color="#7c7c7c"/><stop offset="1" stop-color="#b8b8b8"/></linearGradient><linearGradient id="j" gradientTransform="matrix(16.794906 0 0 -16.156144 -33.898906 891.06981)" gradientUnits="userSpaceOnUse" x1="22.308331" x2="35.785294" y1="18.99214" y2="39.498238"><stop offset="0" stop-color="#eeeeef"/><stop offset=".59928656" stop-color="#d3d7cf"/><stop offset=".82758623" stop-color="#fff"/><stop offset="1" stop-color="#d3d7cf"/></linearGradient><g transform="matrix(.3424757 0 0 .2107718 667.46335 772.75271)"><path d="m-1559.2523-150.69685h1339.6335v478.35718h-1339.6335z" fill="url(#c)" opacity=".402062"/><path d="m-219.61876-150.68038v478.33079c142.874166.90045 345.40022-107.16966 345.40014-239.196175 0-132.026537-159.436816-239.134595-345.40014-239.134615z" fill="url(#d)" opacity=".402062"/><path d="m-1559.2523-150.68038v478.33079c-142.8742.90045-345.4002-107.16966-345.4002-239.196175 0-132.026537 159.4368-239.134595 345.4002-239.134615z" fill="url(#e)" opacity=".402062"/></g><path d="m11.428572 178.07646h720v720h-720z" fill="none"/><g fill-rule="evenodd"><path d="m134.19023 785.47782h469.84467c4.96874 0 8.96882-4.13334 8.96882-9.26754v-443.67775c0-40.44362-108.26635-135.60001-145.8478-135.60001h-332.96569c-4.96874 0-8.96882 4.13331-8.96882 9.26756v570.0102c0 5.1342 4.00008 9.26754 8.96882 9.26754z" fill="url(#j)" stroke="#888a85" stroke-width="16.0313"/><path d="m166.11041 414.7489h345.80896v32.934189h-345.80896z" opacity=".170455"/><path d="m166.11041 477.89832h329.21396v32.934189h-329.21396z" opacity=".170455"/><path d="m166.5631 543.87628h296.02402v32.934189h-296.02402z" opacity=".170455"/><path d="m166.90714 612.35413h345.80896v32.934189h-345.80896z" opacity=".170455"/><path d="m485.26469 197.16327c27.83145-5.09343 131.43599 69.93942 127.26375 131.20169-21.42802-37.41119-65.22625-19.86648-121.54604-22.32149 0 0 5.41943-101.16049-5.71771-108.8802z" fill="url(#i)" stroke="#868a84" stroke-width="14.547576"/></g><path d="m505.14619 230.99877c18.77591 10.55791 60.69912 33.14015 78.51007 62.18174-21.87807-10.49965-40.40638-3.2345-78.16333-2.93974 0 0 2.22499-47.27693-.34674-59.242z" fill="none" opacity=".369318" stroke="url(#h)" stroke-width="14.54757"/><g transform="matrix(.54681705 0 0 .54681705 287.62209 397.7401)"><path d="m13.351353 142.85638h718.72583v718.72583h-718.72583z" fill="none"/><path d="m705.08649 515.97119c0 176.85171-143.36664 320.21835-320.21836 320.21835-176.85171 0-320.21835-143.36664-320.21835-320.21835s143.36664-320.21835 320.21835-320.21835c176.85172 0 320.21836 143.36664 320.21836 320.21835z" fill="#c00" fill-rule="evenodd" stroke="#a40000" stroke-width="29.083954" transform="matrix(1.0314966 0 0 1.0314966 -22.223548 -26.352844)"/><path d="m705.08649 515.97119c0 176.85171-143.36664 320.21835-320.21836 320.21835-176.85171 0-320.21835-143.36664-320.21835-320.21835s143.36664-320.21835 320.21835-320.21835c176.85172 0 320.21836 143.36664 320.21836 320.21835z" fill="none" opacity=".5" stroke="#fff" stroke-width="29.083954" transform="matrix(.9442024 0 0 .9442024 11.373207 18.688447)"/><g fill-rule="evenodd"><path d="m705.08649 515.97119c0 60.54341-3.72007 80.91433-15.71464 81.52944-23.02438 1.18075-73.83203-31.79665-189.95584-36.45291-146.22685-5.80511-337.71885 148.26679-404.417895 91.36512-14.735676-12.57117-30.348335-104.4567-30.348335-136.44165 0-176.76053 143.45782-320.21835 320.21835-320.21835s320.21836 143.45782 320.21836 320.21835z" fill="url(#g)" opacity=".346801" transform="matrix(.9843536 0 0 .9843536 -4.0797 -2.028402)"/><path d="m160.83334 430.72388h433.19046v169.84805h-433.19046z" fill="#babdb6" stroke="#2e3436" stroke-linejoin="round" stroke-width="21.815348"/><path d="m171.74101 440.0733h409.81689v149.59094h-409.81689z" fill="url(#f)"/></g></g></svg>